<?xml version="1.0" encoding="UTF-8" standalone="no"?>
<svg
   xmlns:dc="http://purl.org/dc/elements/1.1/"
   xmlns:cc="http://creativecommons.org/ns#"
   xmlns:rdf="http://www.w3.org/1999/02/22-rdf-syntax-ns#"
   xmlns:svg="http://www.w3.org/2000/svg"
   xmlns="http://www.w3.org/2000/svg"
   version="1.1"
   id="svg96283"
   viewBox="0 0 6.3499998 6.3500002"
   height="24"
   width="24">
  <defs
     id="defs96285" />
  <metadata
     id="metadata96288">
    <rdf:RDF>
      <cc:Work
         rdf:about="">
        <dc:format>image/svg+xml</dc:format>
        <dc:type
           rdf:resource="http://purl.org/dc/dcmitype/StillImage" />
        <dc:title></dc:title>
      </cc:Work>
    </rdf:RDF>
  </metadata>
  <g
     transform="translate(0,-290.64998)"
     id="layer1">
    <path
       id="path20720"
       d="m 4.4377024,292.82283 a 0.29280986,0.29280986 0 0 1 -0.3979807,-0.11535 c -0.2058542,-0.36239 -0.587356,-0.58818 -1.0040952,-0.59317 -0.4167529,-0.005 -0.8032352,0.21179 -1.0177096,0.56915 a 0.29280986,0.29280986 0 1 1 -0.5014356,-0.30143 c 0.3211262,-0.53505 0.9017303,-0.86071 1.5257147,-0.85324 0.6239708,0.007 1.198773,0.34669 1.5069993,0.88927 a 0.29280986,0.29280986 0 0 1 -0.1114929,0.40477 z"
       style="color:#000000;font-style:normal;font-variant:normal;font-weight:normal;font-stretch:normal;font-size:medium;line-height:normal;font-family:sans-serif;font-variant-ligatures:none;font-variant-position:normal;font-variant-caps:normal;font-variant-numeric:normal;font-variant-alternates:normal;font-feature-settings:normal;text-indent:0;text-align:start;text-decoration:none;text-decoration-line:none;text-decoration-style:solid;text-decoration-color:#000000;letter-spacing:normal;word-spacing:normal;text-transform:none;direction:ltr;block-progression:tb;writing-mode:lr-tb;baseline-shift:baseline;text-anchor:start;white-space:normal;shape-padding:0;clip-rule:nonzero;display:inline;overflow:visible;visibility:visible;opacity:1;isolation:auto;mix-blend-mode:normal;color-interpolation:sRGB;color-interpolation-filters:linearRGB;solid-color:#000000;solid-opacity:1;fill:#38a2ff;fill-opacity:1;fill-rule:nonzero;stroke:none;stroke-width:0.58556116;stroke-linecap:round;stroke-linejoin:round;stroke-miterlimit:4;stroke-dasharray:none;stroke-dashoffset:0;stroke-opacity:1;color-rendering:auto;image-rendering:auto;shape-rendering:auto;text-rendering:auto;enable-background:accumulate" />
    <path
       id="path20722"
       d="m 1027,-29 -1.616,-1.066987 -1.6161,-1.066988 L 1025.5,-32 l 1.7321,-0.866025 -0.1161,1.933012 z"
       style="fill:#38a2ff;fill-opacity:1;stroke:#38a2ff;stroke-width:1.61882341;stroke-linecap:round;stroke-linejoin:round;stroke-miterlimit:4;stroke-dasharray:none;stroke-dashoffset:0;stroke-opacity:1"
       transform="matrix(0.36346336,-0.01653193,0.016727,0.35922463,-367.8143,321.20569)" />
    <path
       id="path20724"
       d="m 1.9119471,294.82594 a 0.29280986,0.29280986 0 0 1 0.397977,0.11536 c 0.2058629,0.36239 0.5873511,0.58817 1.0041039,0.59316 0.4167392,0.005 0.8041934,-0.21009 1.0186728,-0.56745 a 0.29280986,0.29280986 0 1 1 0.5014356,0.30143 c -0.3211311,0.53504 -0.9027121,0.85901 -1.5266779,0.85154 -0.6239795,-0.007 -1.1987817,-0.34668 -1.507008,-0.88926 a 0.29280986,0.29280986 0 0 1 0.1114966,-0.40478 z"
       style="color:#000000;font-style:normal;font-variant:normal;font-weight:normal;font-stretch:normal;font-size:medium;line-height:normal;font-family:sans-serif;font-variant-ligatures:none;font-variant-position:normal;font-variant-caps:normal;font-variant-numeric:normal;font-variant-alternates:normal;font-feature-settings:normal;text-indent:0;text-align:start;text-decoration:none;text-decoration-line:none;text-decoration-style:solid;text-decoration-color:#000000;letter-spacing:normal;word-spacing:normal;text-transform:none;direction:ltr;block-progression:tb;writing-mode:lr-tb;baseline-shift:baseline;text-anchor:start;white-space:normal;shape-padding:0;clip-rule:nonzero;display:inline;overflow:visible;visibility:visible;opacity:1;isolation:auto;mix-blend-mode:normal;color-interpolation:sRGB;color-interpolation-filters:linearRGB;solid-color:#000000;solid-opacity:1;fill:#38a2ff;fill-opacity:1;fill-rule:nonzero;stroke:none;stroke-width:0.58556116;stroke-linecap:round;stroke-linejoin:round;stroke-miterlimit:4;stroke-dasharray:none;stroke-dashoffset:0;stroke-opacity:1;color-rendering:auto;image-rendering:auto;shape-rendering:auto;text-rendering:auto;enable-background:accumulate" />
    <path
       id="path20726"
       d="m 1027,-29 -1.616,-1.066987 -1.6161,-1.066988 L 1025.5,-32 l 1.7321,-0.866025 -0.1161,1.933012 z"
       style="fill:#38a2ff;fill-opacity:1;stroke:#38a2ff;stroke-width:1.61882341;stroke-linecap:round;stroke-linejoin:round;stroke-miterlimit:4;stroke-dasharray:none;stroke-dashoffset:0;stroke-opacity:1"
       transform="matrix(-0.36346336,0.01653193,-0.016727,-0.35922463,374.1643,266.4443)" />
  </g>
</svg>
